<?xml version="1.0" encoding="iso-8859-1"?>
<!-- Uploaded to: SVG Repo, www.svgrepo.com, Generator: SVG Repo Mixer Tools -->
<svg height="800px" width="800px" version="1.1" id="Layer_1" xmlns="http://www.w3.org/2000/svg" xmlns:xlink="http://www.w3.org/1999/xlink" 
	 viewBox="0 0 512 512" xml:space="preserve">
<g>
	<path style="fill:#CFF09E;" d="M496.917,255.997H354.315c0-54.308-44.021-98.33-98.33-98.33V15.065
		C389.055,15.065,496.917,122.927,496.917,255.997z"/>
	<path style="fill:#CFF09E;" d="M496.917,255.997H354.315c0,24.26-8.801,46.451-23.363,63.599
		c17.065,38.815,39.438,89.739,59.78,136.163C454.8,412.458,496.917,339.149,496.917,255.997z"/>
</g>
<path style="fill:#507C5C;" d="M512,255.997c0-0.333-0.01-0.662-0.032-0.989c-0.003-0.926-0.032-1.845-0.045-2.768
	c-0.017-1.111-0.024-2.223-0.054-3.33c-0.03-1.096-0.081-2.187-0.125-3.278c-0.044-1.087-0.08-2.177-0.137-3.26
	c-0.059-1.112-0.139-2.217-0.212-3.325c-0.069-1.055-0.131-2.112-0.212-3.164c-0.089-1.129-0.199-2.253-0.301-3.378
	c-0.093-1.025-0.179-2.052-0.284-3.074c-0.119-1.144-0.259-2.282-0.393-3.42c-0.116-0.993-0.224-1.99-0.352-2.979
	c-0.149-1.161-0.322-2.314-0.486-3.468c-0.138-0.963-0.266-1.928-0.415-2.887c-0.181-1.17-0.384-2.332-0.581-3.497
	c-0.158-0.936-0.307-1.876-0.476-2.807c-0.214-1.186-0.45-2.365-0.68-3.545c-0.176-0.902-0.343-1.806-0.528-2.703
	c-0.248-1.201-0.518-2.395-0.784-3.592c-0.193-0.869-0.376-1.742-0.578-2.607c-0.283-1.213-0.587-2.416-0.887-3.623
	c-0.208-0.84-0.408-1.683-0.625-2.518c-0.316-1.219-0.655-2.429-0.987-3.641c-0.224-0.814-0.44-1.633-0.671-2.445
	c-0.352-1.23-0.726-2.451-1.094-3.671c-0.236-0.783-0.464-1.568-0.707-2.348c-0.387-1.236-0.796-2.463-1.201-3.692
	c-0.25-0.757-0.489-1.517-0.747-2.271c-0.425-1.249-0.872-2.488-1.316-3.729c-0.257-0.721-0.506-1.445-0.771-2.163
	c-0.464-1.26-0.95-2.509-1.433-3.762c-0.266-0.689-0.524-1.383-0.795-2.07c-0.498-1.258-1.019-2.506-1.537-3.754
	c-0.277-0.67-0.546-1.344-0.829-2.01c-0.534-1.258-1.091-2.506-1.645-3.756c-0.286-0.644-0.563-1.295-0.855-1.936
	c-0.572-1.26-1.165-2.508-1.757-3.756c-0.294-0.62-0.578-1.246-0.878-1.864c-0.613-1.266-1.246-2.521-1.88-3.777
	c-0.297-0.587-0.584-1.18-0.884-1.764c-0.649-1.263-1.319-2.512-1.988-3.763c-0.304-0.569-0.599-1.143-0.908-1.708
	c-0.685-1.257-1.391-2.502-2.097-3.745c-0.31-0.546-0.611-1.099-0.926-1.644c-0.723-1.252-1.466-2.493-2.208-3.732
	c-0.315-0.525-0.62-1.055-0.939-1.578c-0.76-1.248-1.541-2.482-2.323-3.718c-0.318-0.501-0.626-1.009-0.947-1.507
	c-0.799-1.243-1.618-2.472-2.439-3.7c-0.319-0.479-0.631-0.965-0.954-1.441c-0.834-1.231-1.687-2.448-2.541-3.664
	c-0.325-0.464-0.643-0.933-0.971-1.394c-0.869-1.221-1.758-2.423-2.648-3.628c-0.328-0.444-0.649-0.896-0.981-1.338
	c-0.903-1.204-1.826-2.395-2.749-3.583c-0.334-0.431-0.659-0.866-0.996-1.293c-0.939-1.194-1.898-2.372-2.86-3.548
	c-0.334-0.409-0.661-0.825-0.998-1.233c-0.974-1.177-1.966-2.339-2.961-3.5c-0.339-0.394-0.668-0.796-1.009-1.189
	c-1.004-1.158-2.026-2.297-3.051-3.437c-0.345-0.384-0.682-0.774-1.03-1.156c-1.036-1.136-2.088-2.258-3.143-3.376
	c-0.349-0.37-0.691-0.748-1.043-1.117c-1.064-1.115-2.146-2.213-3.23-3.309c-0.355-0.36-0.704-0.726-1.063-1.084
	c-1.093-1.093-2.205-2.166-3.318-3.239c-0.361-0.348-0.715-0.703-1.078-1.049c-1.121-1.067-2.261-2.118-3.4-3.167
	c-0.367-0.337-0.727-0.682-1.096-1.018c-1.142-1.037-2.303-2.058-3.464-3.074c-0.379-0.333-0.753-0.673-1.133-1.004
	c-1.173-1.015-2.362-2.01-3.552-3.005c-0.381-0.318-0.757-0.644-1.139-0.96c-1.203-0.992-2.422-1.966-3.643-2.935
	c-0.384-0.306-0.76-0.617-1.144-0.92c-1.21-0.951-2.439-1.883-3.667-2.813c-0.408-0.309-0.81-0.626-1.221-0.933
	c-1.228-0.918-2.473-1.817-3.718-2.714c-0.42-0.303-0.832-0.613-1.254-0.912c-1.248-0.888-2.512-1.755-3.777-2.621
	c-0.431-0.295-0.855-0.598-1.287-0.89c-1.261-0.852-2.539-1.684-3.816-2.514c-0.447-0.289-0.887-0.589-1.335-0.876
	c-1.269-0.814-2.551-1.605-3.835-2.396c-0.468-0.289-0.932-0.587-1.401-0.873c-1.287-0.783-2.588-1.541-3.89-2.302
	c-0.477-0.278-0.948-0.566-1.427-0.843c-1.293-0.744-2.6-1.465-3.905-2.186c-0.5-0.277-0.993-0.563-1.496-0.835
	c-1.31-0.712-2.634-1.401-3.957-2.091c-0.507-0.265-1.009-0.539-1.517-0.799c-1.313-0.673-2.639-1.323-3.965-1.973
	c-0.531-0.26-1.058-0.533-1.593-0.79c-1.301-0.628-2.613-1.23-3.924-1.835c-0.57-0.263-1.135-0.537-1.708-0.796
	c-1.313-0.593-2.636-1.164-3.96-1.736c-0.581-0.251-1.156-0.513-1.74-0.76c-1.337-0.566-2.685-1.108-4.034-1.651
	c-0.581-0.233-1.155-0.479-1.737-0.709c-1.344-0.531-2.699-1.036-4.054-1.544c-0.598-0.224-1.189-0.459-1.788-0.679
	c-1.317-0.483-2.646-0.941-3.974-1.403c-0.647-0.224-1.29-0.462-1.939-0.682c-1.299-0.44-2.609-0.855-3.917-1.275
	c-0.686-0.22-1.367-0.453-2.056-0.667c-1.322-0.411-2.654-0.798-3.984-1.188c-0.683-0.202-1.362-0.414-2.049-0.61
	c-1.292-0.367-2.595-0.709-3.896-1.057c-0.736-0.197-1.468-0.406-2.207-0.596c-1.305-0.336-2.619-0.646-3.932-0.962
	c-0.741-0.178-1.475-0.369-2.219-0.54c-1.319-0.306-2.648-0.584-3.975-0.869c-0.747-0.16-1.489-0.334-2.238-0.488
	c-1.27-0.26-2.55-0.494-3.828-0.735c-0.814-0.154-1.624-0.322-2.441-0.468c-1.258-0.226-2.526-0.423-3.79-0.629
	c-0.843-0.137-1.681-0.289-2.527-0.418c-1.275-0.196-2.559-0.363-3.84-0.539c-0.843-0.116-1.683-0.247-2.529-0.354
	c-1.278-0.163-2.565-0.297-3.849-0.441c-0.856-0.096-1.708-0.206-2.568-0.294c-1.308-0.132-2.624-0.238-3.938-0.351
	c-0.843-0.072-1.68-0.16-2.524-0.224c-1.364-0.104-2.735-0.179-4.105-0.26c-0.802-0.048-1.6-0.111-2.402-0.154
	c-1.43-0.072-2.866-0.114-4.302-0.164c-0.75-0.026-1.496-0.066-2.249-0.086c-2.19-0.056-4.386-0.084-6.589-0.084
	c-8.314,0-15.053,6.741-15.053,15.053v128.552c-15.013,2.005-29.511,6.993-42.578,14.718c-34.389,20.33-55.752,57.751-55.752,97.663
	c0,30.242,12.248,59.209,33.396,80.331l-36.494,37.24c-5.819,5.937-5.723,15.467,0.215,21.287c2.929,2.871,6.733,4.301,10.535,4.301
	c3.903,0,7.805-1.51,10.752-4.517l47.729-48.704c0.032-0.032,0.057-0.066,0.087-0.099c0.149-0.155,0.287-0.324,0.43-0.486
	c0.25-0.283,0.492-0.569,0.717-0.864c0.051-0.068,0.11-0.125,0.16-0.193c0.08-0.108,0.143-0.223,0.22-0.334
	c0.166-0.239,0.327-0.479,0.476-0.726c0.111-0.182,0.215-0.366,0.319-0.551c0.14-0.251,0.272-0.504,0.396-0.762
	c0.095-0.196,0.184-0.394,0.269-0.595c0.107-0.248,0.208-0.498,0.301-0.753c0.08-0.217,0.152-0.434,0.22-0.652
	c0.077-0.244,0.148-0.488,0.212-0.733c0.059-0.229,0.113-0.458,0.161-0.688c0.051-0.245,0.098-0.491,0.135-0.736
	c0.036-0.229,0.066-0.459,0.092-0.688c0.029-0.256,0.051-0.513,0.066-0.771c0.012-0.217,0.021-0.432,0.024-0.649
	c0.005-0.275,0.002-0.549-0.009-0.825c-0.008-0.196-0.02-0.391-0.035-0.587c-0.023-0.295-0.054-0.59-0.095-0.884
	c-0.024-0.173-0.05-0.345-0.08-0.516c-0.054-0.312-0.117-0.622-0.19-0.93c-0.036-0.154-0.075-0.306-0.117-0.458
	c-0.086-0.318-0.182-0.632-0.289-0.944c-0.05-0.143-0.101-0.286-0.155-0.429c-0.116-0.309-0.242-0.614-0.381-0.915
	c-0.066-0.146-0.135-0.289-0.206-0.434c-0.141-0.288-0.292-0.57-0.453-0.849c-0.089-0.155-0.182-0.307-0.277-0.459
	c-0.161-0.257-0.33-0.512-0.509-0.763c-0.116-0.161-0.236-0.319-0.358-0.477c-0.182-0.233-0.369-0.464-0.566-0.689
	c-0.135-0.154-0.275-0.304-0.417-0.452c-0.125-0.131-0.236-0.271-0.367-0.399c-0.095-0.093-0.199-0.172-0.297-0.262
	c-0.128-0.119-0.26-0.233-0.393-0.348c-0.271-0.236-0.546-0.462-0.831-0.674c-0.045-0.033-0.084-0.072-0.129-0.105
	c-21.39-15.65-34.16-40.796-34.16-67.261c0-29.318,15.698-56.809,40.967-71.747c12.76-7.544,27.39-11.53,42.31-11.53
	c45.92,0,83.277,37.358,83.277,83.277c0,19.705-7.027,38.833-19.785,53.855c-15.879,18.698-39.021,29.422-63.493,29.422
	c-8.314,0-15.053,6.741-15.053,15.053c0,8.312,6.739,15.053,15.053,15.053c25.561,0,50.051-8.586,69.828-24.069
	c1.072,2.44,2.157,4.907,3.254,7.406c3.379,7.69,6.872,15.64,10.444,23.771c0.05,0.113,0.099,0.224,0.148,0.337
	c2.576,5.865,5.192,11.822,7.83,17.831c0.415,0.945,0.829,1.891,1.246,2.839c0.534,1.218,1.072,2.44,1.608,3.662
	c3.567,8.124,7.165,16.323,10.76,24.518c0.214,0.488,0.427,0.974,0.641,1.463c2.484,5.66,4.963,11.314,7.427,16.933
	c0.137,0.312,0.272,0.622,0.408,0.932c0.732,1.668,1.46,3.328,2.189,4.99c-34.924,20.898-74.694,31.886-115.785,31.886
	C131.434,481.878,30.105,380.548,30.105,255.997c0-94.89,59.929-180.29,149.125-212.51c7.818-2.824,11.867-11.452,9.044-19.272
	c-2.824-7.817-11.451-11.872-19.272-9.044C67.917,51.686,0,148.467,0,255.997c0,141.15,114.835,255.986,255.985,255.986
	c51.314,0,100.822-15.129,143.176-43.752c70.398-47.58,112.512-126.547,112.795-211.374C511.973,256.571,512,256.288,512,255.997z
	 M367.597,236.003c-0.098-0.545-0.217-1.082-0.322-1.624c-0.211-1.087-0.423-2.172-0.664-3.248c-0.143-0.638-0.306-1.267-0.461-1.9
	c-0.236-0.971-0.473-1.94-0.733-2.901c-0.181-0.664-0.376-1.322-0.567-1.981c-0.266-0.917-0.539-1.832-0.828-2.741
	c-0.214-0.668-0.438-1.332-0.664-1.996c-0.301-0.887-0.611-1.77-0.933-2.648c-0.242-0.659-0.492-1.317-0.747-1.97
	c-0.339-0.87-0.688-1.733-1.048-2.592c-0.269-0.643-0.539-1.284-0.819-1.921c-0.379-0.863-0.774-1.715-1.174-2.565
	c-0.289-0.614-0.575-1.228-0.875-1.836c-0.431-0.875-0.881-1.736-1.332-2.598c-0.297-0.566-0.587-1.135-0.893-1.695
	c-0.506-0.926-1.036-1.838-1.567-2.749c-0.278-0.477-0.546-0.962-0.832-1.436c-0.709-1.176-1.445-2.333-2.196-3.482
	c-0.126-0.193-0.244-0.393-0.372-0.586c-0.888-1.34-1.805-2.658-2.747-3.957c-0.265-0.364-0.543-0.717-0.811-1.078
	c-0.686-0.924-1.377-1.844-2.091-2.746c-0.369-0.467-0.753-0.92-1.129-1.38c-0.637-0.78-1.275-1.556-1.931-2.318
	c-0.421-0.489-0.857-0.968-1.287-1.45c-0.635-0.712-1.273-1.421-1.925-2.116c-0.459-0.489-0.926-0.969-1.392-1.45
	c-0.65-0.67-1.307-1.334-1.973-1.987c-0.485-0.474-0.972-0.942-1.466-1.409c-0.676-0.638-1.359-1.269-2.049-1.891
	c-0.503-0.453-1.007-0.903-1.519-1.347c-0.707-0.614-1.426-1.218-2.15-1.815c-0.513-0.424-1.025-0.849-1.546-1.264
	c-0.754-0.601-1.522-1.186-2.291-1.769c-0.509-0.384-1.012-0.774-1.526-1.15c-0.832-0.608-1.68-1.195-2.529-1.781
	c-0.471-0.325-0.933-0.659-1.409-0.975c-1.027-0.686-2.073-1.347-3.123-2c-0.313-0.194-0.619-0.402-0.935-0.593
	c-1.376-0.837-2.77-1.645-4.182-2.423c-0.324-0.178-0.656-0.342-0.981-0.516c-1.091-0.589-2.186-1.168-3.298-1.721
	c-0.524-0.26-1.06-0.503-1.588-0.754c-0.929-0.444-1.857-0.887-2.798-1.305c-0.598-0.265-1.203-0.515-1.805-0.771
	c-0.891-0.378-1.784-0.753-2.685-1.108c-0.638-0.251-1.283-0.489-1.925-0.729c-0.884-0.33-1.77-0.653-2.664-0.96
	c-0.664-0.229-1.332-0.449-2.002-0.665c-0.891-0.288-1.785-0.566-2.685-0.832c-0.68-0.202-1.362-0.397-2.047-0.587
	c-0.909-0.251-1.824-0.486-2.743-0.715c-0.686-0.17-1.371-0.342-2.062-0.5c-0.941-0.215-1.888-0.409-2.836-0.602
	c-0.679-0.137-1.356-0.28-2.038-0.403c-1-0.184-2.008-0.34-3.018-0.497c-0.641-0.099-1.278-0.209-1.924-0.298
	c-0.141-0.02-0.281-0.047-0.424-0.065V30.626c0.288,0.02,0.575,0.032,0.863,0.053c0.789,0.056,1.574,0.12,2.362,0.184
	c1.01,0.081,2.02,0.164,3.027,0.259c0.781,0.074,1.561,0.157,2.341,0.238c1.005,0.105,2.011,0.214,3.014,0.331
	c0.774,0.092,1.546,0.19,2.318,0.289c1.003,0.129,2.005,0.262,3.003,0.405c0.762,0.108,1.522,0.223,2.282,0.339
	c1.004,0.154,2.007,0.313,3.006,0.479c0.75,0.125,1.498,0.254,2.246,0.387c1.001,0.178,2,0.361,2.999,0.552
	c0.738,0.141,1.475,0.284,2.21,0.434c1.006,0.202,2.008,0.412,3.009,0.629c0.718,0.155,1.436,0.312,2.151,0.473
	c1.01,0.229,2.016,0.467,3.02,0.707c0.703,0.169,1.406,0.339,2.106,0.515c1.013,0.254,2.023,0.519,3.03,0.787
	c0.682,0.181,1.364,0.361,2.043,0.548c1.025,0.283,2.046,0.578,3.065,0.876c0.653,0.19,1.31,0.378,1.96,0.575
	c1.043,0.315,2.082,0.641,3.119,0.971c0.62,0.197,1.242,0.39,1.859,0.593c1.07,0.349,2.134,0.715,3.199,1.081
	c0.575,0.197,1.153,0.39,1.727,0.593c1.117,0.394,2.226,0.804,3.334,1.215c0.513,0.19,1.031,0.375,1.543,0.569
	c1.191,0.452,2.374,0.92,3.555,1.391c0.421,0.169,0.847,0.33,1.269,0.501c1.343,0.545,2.675,1.106,4.004,1.677
	c0.254,0.108,0.51,0.212,0.765,0.322c4.811,2.083,9.536,4.329,14.168,6.732c0.063,0.032,0.123,0.066,0.187,0.099
	c1.462,0.759,2.913,1.534,4.356,2.324c0.283,0.155,0.561,0.316,0.843,0.473c1.218,0.673,2.431,1.353,3.634,2.049
	c0.385,0.223,0.765,0.453,1.148,0.677c1.094,0.64,2.186,1.284,3.266,1.943c0.44,0.268,0.873,0.542,1.311,0.813
	c1.016,0.628,2.032,1.258,3.038,1.903c0.471,0.303,0.938,0.611,1.407,0.915c0.963,0.628,1.927,1.257,2.88,1.898
	c0.486,0.327,0.968,0.659,1.451,0.99c0.927,0.634,1.851,1.27,2.77,1.918c0.495,0.349,0.986,0.704,1.478,1.058
	c0.894,0.643,1.787,1.287,2.67,1.942c0.5,0.37,0.995,0.744,1.492,1.117c0.867,0.653,1.731,1.31,2.589,1.975
	c0.498,0.385,0.993,0.777,1.489,1.167c0.846,0.667,1.689,1.34,2.524,2.019c0.492,0.4,0.981,0.802,1.471,1.206
	c0.826,0.683,1.65,1.373,2.467,2.067c0.486,0.414,0.971,0.829,1.454,1.246c0.808,0.698,1.611,1.404,2.41,2.115
	c0.477,0.424,0.953,0.85,1.427,1.279c0.795,0.72,1.582,1.444,2.366,2.174c0.465,0.434,0.93,0.867,1.392,1.304
	c0.778,0.738,1.55,1.481,2.318,2.229c0.455,0.443,0.909,0.884,1.359,1.331c0.769,0.762,1.529,1.531,2.288,2.303
	c0.435,0.443,0.87,0.884,1.302,1.331c0.762,0.789,1.514,1.587,2.264,2.386c0.417,0.444,0.835,0.887,1.249,1.334
	c0.756,0.817,1.499,1.645,2.243,2.475c0.394,0.44,0.792,0.878,1.182,1.319c0.76,0.861,1.508,1.731,2.255,2.604
	c0.36,0.421,0.724,0.838,1.081,1.261c0.775,0.918,1.537,1.847,2.297,2.779c0.318,0.39,0.641,0.775,0.957,1.167
	c0.811,1.007,1.609,2.026,2.404,3.047c0.251,0.324,0.509,0.643,0.757,0.966c0.903,1.174,1.791,2.359,2.67,3.551
	c0.134,0.181,0.271,0.357,0.403,0.537c3.056,4.162,5.971,8.434,8.743,12.805c0.191,0.301,0.375,0.607,0.563,0.909
	c0.717,1.142,1.428,2.29,2.125,3.446c0.269,0.446,0.528,0.899,0.795,1.347c0.605,1.021,1.209,2.041,1.799,3.072
	c0.3,0.525,0.59,1.057,0.887,1.584c0.54,0.963,1.081,1.927,1.609,2.899c0.312,0.575,0.614,1.156,0.921,1.734
	c0.497,0.935,0.992,1.87,1.475,2.812c0.315,0.614,0.622,1.233,0.93,1.85c0.459,0.915,0.917,1.829,1.362,2.752
	c0.313,0.646,0.617,1.296,0.924,1.945c0.427,0.903,0.852,1.806,1.267,2.715c0.306,0.668,0.604,1.343,0.903,2.016
	c0.4,0.902,0.799,1.803,1.188,2.711c0.295,0.686,0.583,1.377,0.872,2.067c0.375,0.899,0.747,1.8,1.111,2.705
	c0.284,0.706,0.563,1.415,0.84,2.125c0.352,0.902,0.698,1.805,1.04,2.711c0.269,0.718,0.534,1.438,0.796,2.159
	c0.33,0.906,0.653,1.815,0.972,2.728c0.256,0.732,0.509,1.466,0.757,2.202c0.307,0.908,0.607,1.818,0.902,2.731
	c0.241,0.745,0.48,1.492,0.714,2.24c0.284,0.914,0.561,1.83,0.835,2.749c0.224,0.756,0.449,1.511,0.665,2.27
	c0.263,0.921,0.518,1.845,0.771,2.77c0.208,0.763,0.415,1.525,0.616,2.291c0.244,0.932,0.476,1.868,0.707,2.804
	c0.19,0.766,0.381,1.532,0.563,2.302c0.223,0.942,0.434,1.889,0.644,2.836c0.172,0.772,0.346,1.541,0.51,2.317
	c0.202,0.956,0.391,1.916,0.581,2.878c0.152,0.771,0.309,1.541,0.455,2.315c0.182,0.978,0.351,1.961,0.521,2.944
	c0.132,0.762,0.269,1.52,0.393,2.285c0.164,1.007,0.31,2.02,0.461,3.033c0.111,0.748,0.229,1.493,0.333,2.244
	c0.146,1.057,0.274,2.118,0.405,3.179c0.087,0.709,0.184,1.415,0.265,2.127c0.135,1.185,0.25,2.377,0.367,3.567
	c0.059,0.593,0.126,1.183,0.181,1.776c0.161,1.788,0.303,3.581,0.421,5.38H368.371C368.151,239.286,367.889,237.639,367.597,236.003
	z M396.971,432.497c-2.547-5.807-5.11-11.654-7.678-17.505c-0.247-0.564-0.494-1.127-0.742-1.69c-0.738-1.68-1.474-3.36-2.211-5.04
	c-0.643-1.466-1.285-2.931-1.928-4.395c-0.45-1.027-0.9-2.049-1.349-3.074c-0.996-2.27-1.99-4.535-2.983-6.798
	c-0.79-1.8-1.579-3.599-2.366-5.392c-0.465-1.06-0.929-2.115-1.392-3.172c-0.829-1.889-1.656-3.772-2.481-5.649
	c-0.313-0.715-0.626-1.427-0.939-2.139c-0.986-2.246-1.967-4.48-2.944-6.706c-0.184-0.42-0.37-0.841-0.554-1.26
	c-7.422-16.901-14.565-33.153-21.062-47.934c10.702-15.027,17.571-32.456,20.021-50.693h113.005
	C477.155,334.378,446.532,392.886,396.971,432.497z"/>
</svg>